# xmcd
#
# Track frame offsets: 
#        198
#        14643
#        34732
#        51172
#        72371
#        90067
#        110571
#        128401
#        142056
#        161989
#
# Disc length: 2367 seconds
#
# Revision: 0
# Processed by: cddbd v1.5.2PL0 Copyright (c) Steve Scherf et al.
# Submitted via: ExactAudioCopy v0.99pb1
#
DISCID=86093d0a
DTITLE=Various Artist - Master Cuts Life Style - Soul Sessions [CD3]
DYEAR=2007
DGENRE=Soul
TTITLE0=Bobby Womack - A Change Is Gonna Come
TTITLE1=Gill Scott-Heron - Save The Children
TTITLE2=The Shufflers - Nothing Ever Easy
TTITLE3=Billy Griffin - So Hung Up On You
TTITLE4=Barbara Stevens - Given' It Up
TTITLE5=The Misha Sextet - Changing Season
TTITLE6=Darius P - Hit Me
TTITLE7=The Supers - A Little Bit More
TTITLE8=Graham Dee - Let's Get It On
TTITLE9=Tyra Fox - Can You Handel It
EXTD=
EXTT0=
EXTT1=
EXTT2=
EXTT3=
EXTT4=
EXTT5=
EXTT6=
EXTT7=
EXTT8=
EXTT9=
PLAYORDER=
